# xmcd CD database file
#
# Track frame offsets:
#	150
#	12562
#	24257
#	37130
#	49472
#	62464
#	75000
#	86665
#	99555
#	111885
#	124117
#	135982
#
# Disc length: 1980 seconds
#
# Revision: 1
# Processed by: cddbd v1.4PL0 Copyright (c) Steve Scherf et al.
# Submitted via: CDex 1.40Release
#
DISCID=9107ba0c
DTITLE=Hank Williams - Move It On Over - Disc One
DYEAR=1999
DGENRE=Country
TTITLE0=Lovesick Blues
TTITLE1=A Mansion On The Hill
TTITLE2=I'm A Long Gone Daddy
TTITLE3=Fly Trouble
TTITLE4=On The Banks Of TheOld Pontchartrain
TTITLE5=Rootie Tootie
TTITLE6=I'm Satified With You
TTITLE7=I Can't Get You Out Of My Mind
TTITLE8=My Sweet Love Ain't Around
TTITLE9=The Blues Come Around
TTITLE10=I'll Be A Bachelor Til I Die
TTITLE11=There'll Be No Treardrops Tonight
EXTD=YEAR: 1999 ID3G: 2
EXTT0=
EXTT1=
EXTT2=
EXTT3=
EXTT4=
EXTT5=
EXTT6=
EXTT7=
EXTT8=
EXTT9=
EXTT10=
EXTT11=
PLAYORDER=
